<svg width="102" height="15" viewBox="0 0 102 15" fill="none" xmlns="http://www.w3.org/2000/svg">
<g clip-path="url(#clip0_242_82)">
<path fill-rule="evenodd" clip-rule="evenodd" d="M69.3564 2.49964C68.0185 2.75841 67.193 3.24135 66.565 4.13311C65.4541 5.71042 65.4893 8.42477 66.6427 10.1413C66.7449 10.2932 66.9836 10.5614 67.1731 10.7371C67.8992 11.4109 68.9612 11.7326 70.238 11.6652C71.6785 11.5888 72.7103 10.9311 73.3487 9.68132C73.5133 9.35876 73.6968 8.84976 73.6968 8.71499C73.6968 8.65524 73.572 8.60806 73.1059 8.49351C72.7804 8.41309 72.5055 8.35694 72.4942 8.36817C72.4829 8.3794 72.4318 8.50743 72.3807 8.65299C72.0646 9.55373 71.5818 10.122 70.8887 10.4087C70.6391 10.512 70.5188 10.5308 70.007 10.5475C69.5381 10.5632 69.3591 10.5515 69.1498 10.4909C68.2184 10.2218 67.5913 9.58743 67.3069 8.62559C66.9217 7.32456 67.0094 5.92516 67.5388 4.92109C68.3432 3.39679 70.7625 3.06749 71.7735 4.3447C71.9602 4.58056 72.2952 5.19243 72.2952 5.29801C72.2952 5.39999 72.4259 5.39145 72.9806 5.25443L73.5698 5.10887L73.5426 4.96916C73.5273 4.89234 73.4097 4.6174 73.2809 4.35773C73.0783 3.95026 72.991 3.83076 72.637 3.4781C72.3043 3.14701 72.1551 3.0347 71.8431 2.8824C71.2662 2.60117 70.8529 2.50818 70.1024 2.49155C69.7543 2.48392 69.4188 2.48751 69.3564 2.49964ZM78.1724 2.53738C77.1267 2.73415 76.3513 3.20586 75.6618 4.06482C75.376 4.42107 75.0803 5.04014 74.9329 5.59316C74.8276 5.9885 74.8109 6.15023 74.7937 6.94091C74.7769 7.71182 74.7869 7.9005 74.8638 8.27158C75.2942 10.3516 76.9105 11.6706 79.0401 11.6791C80.4475 11.6845 81.7551 11.0623 82.4921 10.0367C82.7733 9.64493 83.036 9.07663 83.1816 8.54517C83.2937 8.13546 83.3009 8.0474 83.3027 7.09814C83.3045 6.17494 83.2955 6.05229 83.1974 5.68301C82.7701 4.07291 81.7501 3.01448 80.2301 2.60476C79.7585 2.47763 78.677 2.44214 78.1724 2.53738ZM84.9209 2.65194L84.8192 2.69282V7.11926V11.5457H86.6254C88.6007 11.5457 89.1854 11.5008 89.826 11.2995C90.667 11.0358 91.2701 10.49 91.7146 9.59147C92.1079 8.7954 92.2476 8.11165 92.2499 6.96337C92.2535 5.41256 91.8262 4.27507 90.9301 3.4507C90.4038 2.96641 89.77 2.7328 88.7649 2.65149C88.0695 2.59533 85.0615 2.59578 84.9209 2.65194ZM93.8617 7.07568V11.5457H97.2301H100.598V10.9841V10.4226H97.8404H95.0825V8.96297V7.50336L97.5579 7.49168L100.033 7.48L100.046 6.92967L100.059 6.37935H97.5981C95.3958 6.37935 95.1345 6.37171 95.11 6.30836C95.0947 6.26928 95.0825 5.68301 95.0825 5.00555V3.77371H97.7274H100.372V3.18969V2.60566H97.117H93.8617V7.07568ZM78.6919 3.54639C77.7348 3.69599 76.8604 4.26339 76.4883 4.97634C75.9909 5.92875 75.8752 7.24864 76.1876 8.39827C76.4584 9.39425 77.1411 10.1297 78.115 10.4742C78.4898 10.6063 79.3538 10.6396 79.7553 10.5367C80.2979 10.3979 80.6912 10.1728 81.0891 9.77296C81.5231 9.33674 81.7442 8.94859 81.9133 8.32414C82.0214 7.92566 82.0327 7.8084 82.0327 7.07568C82.0327 6.34341 82.0214 6.2257 81.9133 5.82722C81.5381 4.44219 80.5859 3.62635 79.2354 3.53291C79.0613 3.52078 78.8167 3.52662 78.6919 3.54639ZM86.0738 3.75439C86.0553 3.77326 86.0399 5.28138 86.0399 7.10578V10.4226L87.3398 10.4217C88.8101 10.4208 89.0719 10.3871 89.5954 10.131C90.1488 9.86057 90.539 9.34798 90.7787 8.57572C90.936 8.06942 90.9821 7.59816 90.9563 6.76705C90.9355 6.10845 90.9147 5.93908 90.8117 5.59406C90.6643 5.10034 90.5191 4.82899 90.223 4.4934C89.9323 4.16365 89.6529 3.97183 89.2902 3.85322C89.0271 3.76742 88.872 3.75709 87.5545 3.73957C86.7588 3.72878 86.0923 3.73552 86.0738 3.75439Z" fill="#F9F9FA"/>
<path fill-rule="evenodd" clip-rule="evenodd" d="M0 7.05319V14.1064L51.0113 14.0952L102.023 14.0839L102.034 7.04196L102.046 0H51.0226H0L0 7.05319ZM0.0221543 7.07565C0.0221543 10.9549 0.0275798 12.5354 0.0339096 10.5874C0.0402394 8.63994 0.0402394 5.466 0.0339096 3.53423C0.0275798 1.60292 0.0221543 3.1964 0.0221543 7.07565ZM1.35638 6.9858V12.8485H32.8019H64.2473V6.9858V1.12312H32.8019H1.35638V6.9858ZM69.3564 2.49962C68.0185 2.75838 67.1929 3.24132 66.5649 4.13308C65.4541 5.71039 65.4893 8.42475 66.6427 10.1413C66.7449 10.2932 66.9836 10.5614 67.1731 10.737C67.8992 11.4109 68.9612 11.7326 70.238 11.6652C71.6785 11.5888 72.7103 10.9311 73.3487 9.68129C73.5132 9.35873 73.6968 8.84973 73.6968 8.71496C73.6968 8.65521 73.572 8.60804 73.1059 8.49348C72.7803 8.41306 72.5054 8.35691 72.4941 8.36814C72.4828 8.37937 72.4318 8.50741 72.3807 8.65296C72.0646 9.55371 71.5818 10.122 70.8886 10.4086C70.6391 10.512 70.5188 10.5308 70.007 10.5474C69.5381 10.5632 69.3591 10.5515 69.1498 10.4908C68.2184 10.2217 67.5913 9.5874 67.3069 8.62556C66.9217 7.32454 67.0094 5.92513 67.5388 4.92106C68.3432 3.39676 70.7625 3.06746 71.7735 4.34468C71.9602 4.58053 72.2952 5.19241 72.2952 5.29798C72.2952 5.39996 72.4259 5.39142 72.9806 5.2544L73.5698 5.10885L73.5426 4.96913C73.5273 4.89231 73.4097 4.61737 73.2809 4.3577C73.0783 3.95024 72.991 3.83074 72.637 3.47808C72.3043 3.14698 72.1551 3.03467 71.8431 2.88237C71.2662 2.60115 70.8529 2.50815 70.1024 2.49153C69.7542 2.48389 69.4188 2.48749 69.3564 2.49962ZM78.1724 2.53735C77.1266 2.73412 76.3512 3.20583 75.6618 4.0648C75.376 4.42105 75.0803 5.04011 74.9329 5.59314C74.8276 5.98847 74.8109 6.1502 74.7937 6.94088C74.7769 7.71179 74.7869 7.90047 74.8637 8.27155C75.2942 10.3516 76.9105 11.6706 79.0401 11.6791C80.4475 11.6845 81.7551 11.0623 82.492 10.0366C82.7733 9.6449 83.036 9.0766 83.1815 8.54514C83.2937 8.13543 83.3009 8.04738 83.3027 7.09812C83.3045 6.17491 83.2955 6.05227 83.1974 5.68299C82.7701 4.07288 81.7501 3.01445 80.23 2.60474C79.7585 2.4776 78.677 2.44211 78.1724 2.53735ZM84.9209 2.65191L84.8191 2.69279V7.11923V11.5457H86.6254C88.6007 11.5457 89.1853 11.5007 89.826 11.2995C90.667 11.0358 91.2701 10.4899 91.7145 9.59144C92.1079 8.79537 92.2476 8.11162 92.2499 6.96334C92.2535 5.41254 91.8262 4.27504 90.9301 3.45067C90.4038 2.96638 89.7699 2.73277 88.7649 2.65146C88.0695 2.5953 85.0615 2.59575 84.9209 2.65191ZM93.8617 7.07565V11.5457H97.23H100.598V10.9841V10.4226H97.8404H95.0824V8.96294V7.50334L97.5578 7.49166L100.033 7.47998L100.046 6.92965L100.059 6.37932H97.5981C95.3958 6.37932 95.1344 6.37168 95.11 6.30834C95.0947 6.26925 95.0824 5.68299 95.0824 5.00552V3.77368H97.7274H100.372V3.18966V2.60564H97.117H93.8617V7.07565ZM6.88455 2.7494C6.85787 2.78174 5.92739 4.61737 4.81606 6.82857C3.70473 9.03977 2.70056 11.0362 2.58436 11.264C2.41436 11.5996 2.38316 11.6944 2.42386 11.7582C2.47133 11.8332 2.72995 11.8381 6.99984 11.8489C11.4628 11.8606 11.5265 11.8592 11.5736 11.7721C11.6134 11.6975 11.2607 10.9657 9.36854 7.20054C7.05274 2.59171 7.03691 2.56341 6.88455 2.7494ZM22.0186 2.82981L18.4694 2.85272L18.4572 3.60521L18.4445 4.3577H19.7358C20.7291 4.3577 21.0307 4.37073 21.0443 4.41386C21.0795 4.52797 21.1139 6.91976 21.1144 9.26574V11.6804H22.0186H22.9229L22.9287 9.01865C22.9319 7.55455 22.9468 5.9121 22.9627 5.36851L22.9907 4.38017L24.2906 4.36804L25.5904 4.35636V3.57062C25.5904 3.1389 25.5855 2.79028 25.5791 2.79612C25.5728 2.80196 23.9705 2.81723 22.0186 2.82981ZM26.9197 2.81813L26.6891 2.8343L26.6565 4.86535C26.6389 5.98218 26.629 7.96966 26.6344 9.28236L26.6443 11.6683L26.9834 11.6971C27.1697 11.7123 27.5834 11.7254 27.9031 11.7254H28.484V7.25535V2.78534L27.8172 2.79387C27.4505 2.79836 27.0463 2.80915 26.9197 2.81813ZM30.3296 2.81903L29.5755 2.83251L29.547 3.06702C29.5312 3.1964 29.5248 3.53423 29.5325 3.81861L29.5465 4.33524L30.8577 4.3577L32.1689 4.38017L32.1806 8.03031L32.1919 11.6804H33.1188H34.0452V8.01907V4.3577H35.3564H36.6676V3.57152V2.78534L33.8757 2.79522C32.3402 2.80106 30.7442 2.81139 30.3296 2.81903ZM38.7121 2.81993L37.8399 2.83206L37.7924 2.9547C37.7273 3.12407 37.7698 8.50336 37.8413 9.05235C37.9805 10.1278 38.2342 10.6512 38.8581 11.1508C39.3998 11.5843 39.8876 11.7465 40.8841 11.8256C42.1062 11.9221 43.0204 11.7577 43.695 11.3201C44.1041 11.0551 44.4134 10.7105 44.6037 10.3093C44.9266 9.63008 44.9867 8.86052 44.9867 5.42197V2.83026H44.0372H43.0878L43.0873 5.71668C43.0873 8.82053 43.062 9.25226 42.8635 9.59818C42.4141 10.3821 40.9198 10.503 40.1562 9.81741C39.9003 9.58785 39.7551 9.26664 39.6986 8.80661C39.6706 8.58108 39.6516 7.285 39.6516 5.63042C39.6516 4.09355 39.6362 2.82936 39.6177 2.82173C39.5991 2.81409 39.1913 2.81319 38.7121 2.81993ZM56.4142 2.81858L55.8378 2.83296V7.2567V11.6804H59.226C61.7552 11.6804 62.6224 11.667 62.6468 11.6279C62.7006 11.5416 62.7237 10.9504 62.6893 10.5394L62.6567 10.1539L60.1854 10.1422L57.7141 10.1305V8.98496V7.83938L59.9295 7.81691L62.1449 7.79445V7.03073V6.26701L59.9173 6.25533L57.6897 6.24365L57.7019 5.31191L57.7141 4.38017L60.1 4.36849L62.4863 4.35681L62.4736 3.5823L62.4614 2.8078L59.7261 2.806C58.2214 2.8051 56.7312 2.81094 56.4142 2.81858ZM46.8481 2.88821C46.8079 2.93673 46.7975 4.01178 46.8061 7.32768L46.8178 11.7029L48.5133 11.7164C50.3544 11.7308 51.146 11.6881 51.6899 11.5461C52.7131 11.2788 53.3755 10.7343 53.852 9.77024C54.1807 9.10491 54.2987 8.58962 54.3304 7.68214C54.3955 5.81282 54.0324 4.63579 53.1083 3.71753C52.7588 3.37026 52.1791 3.05803 51.6556 2.93583C51.2048 2.83071 46.9318 2.78848 46.8481 2.88821ZM12.4787 7.27692V11.6804H15.6436H18.8085V10.9167V10.153H16.5709H14.3329L14.3216 6.52533L14.3098 2.89765L13.3943 2.88552L12.4787 2.87339V7.27692ZM78.6919 3.54636C77.7348 3.69596 76.8603 4.26336 76.4882 4.97632C75.9909 5.92872 75.8752 7.24861 76.1876 8.39824C76.4584 9.39422 77.1411 10.1296 78.115 10.4742C78.4898 10.6063 79.3538 10.6395 79.7553 10.5367C80.2979 10.3978 80.6912 10.1728 81.0891 9.77294C81.5231 9.33672 81.7442 8.94857 81.9133 8.32411C82.0214 7.92563 82.0327 7.80838 82.0327 7.07565C82.0327 6.34338 82.0214 6.22568 81.9133 5.82719C81.5381 4.44216 80.5859 3.62633 79.2354 3.53289C79.0613 3.52076 78.8167 3.5266 78.6919 3.54636ZM86.0738 3.75436C86.0553 3.77323 86.0399 5.28136 86.0399 7.10575V10.4226L87.3398 10.4217C88.8101 10.4208 89.0719 10.3871 89.5954 10.131C90.1488 9.86054 90.539 9.34795 90.7786 8.57569C90.936 8.06939 90.9821 7.59813 90.9563 6.76702C90.9355 6.10842 90.9147 5.93906 90.8116 5.59403C90.6643 5.10031 90.5191 4.82897 90.223 4.49338C89.9323 4.16363 89.6528 3.9718 89.2902 3.8532C89.0271 3.76739 88.872 3.75706 87.5545 3.73954C86.7588 3.72876 86.0923 3.7355 86.0738 3.75436ZM48.6498 7.19291C48.6498 8.78369 48.6679 10.1135 48.6896 10.1476C48.7222 10.1988 48.9098 10.2051 49.7404 10.1849C50.8182 10.1588 51.0841 10.118 51.4747 9.9176C52.1484 9.57212 52.4468 8.75494 52.4468 7.25535C52.4468 6.01768 52.2384 5.30741 51.7415 4.85233C51.3102 4.45744 50.9277 4.36489 49.5645 4.32626L48.6489 4.29975L48.6498 7.19291ZM6.88183 4.81324C6.77061 5.05763 6.11141 6.44626 5.76508 7.1655C5.62266 7.46201 5.34279 8.04828 5.14386 8.46832C4.94447 8.88837 4.60085 9.60402 4.38021 10.0587C4.15957 10.5128 3.97872 10.892 3.97872 10.901C3.97872 10.9095 4.17721 10.9167 4.42 10.9167H4.86082L4.92548 10.7707C4.9612 10.6903 5.28402 10.0281 5.643 9.29943C6.00199 8.57075 6.44508 7.66417 6.62774 7.28545C6.81085 6.90719 6.97904 6.60889 7.00255 6.62281C7.04189 6.64752 7.90229 8.35826 8.75862 10.1166L9.14564 10.9109L9.59189 10.9253C9.83694 10.9329 10.0372 10.9365 10.0372 10.9329C10.0372 10.9293 9.79309 10.427 9.49468 9.81607C9.19628 9.20509 8.95213 8.70058 8.95213 8.69429C8.95213 8.688 8.80202 8.37218 8.61846 7.99167C8.43535 7.61161 8.24364 7.20908 8.19301 7.09812C7.92399 6.5078 7.04279 4.68925 7.00979 4.656C6.98854 4.63489 6.93112 4.70542 6.88183 4.81324ZM6.90354 8.65925C6.86556 8.7518 6.6092 9.28775 6.3334 9.84976C6.05806 10.4122 5.83245 10.8821 5.83245 10.8943C5.83245 10.9068 5.96402 10.9167 6.12497 10.9167H6.4175L6.6933 10.3552C6.84521 10.0465 6.98311 9.79495 6.99984 9.7963C7.01657 9.79765 7.15492 10.0555 7.30638 10.3691L7.58218 10.9392L7.87154 10.9383C8.12383 10.9374 8.1591 10.9271 8.14689 10.8574C8.13965 10.8134 8.00447 10.5205 7.84713 10.2069C7.69024 9.89289 7.43705 9.3785 7.28468 9.06358C7.13231 8.74865 6.99984 8.49078 6.99035 8.49078C6.9804 8.49078 6.94152 8.56671 6.90354 8.65925Z" fill="url(#paint0_linear_242_82)"/>
</g>
<defs>
<linearGradient id="paint0_linear_242_82" x1="0" y1="7.05319" x2="102.046" y2="7.05319" gradientUnits="userSpaceOnUse">
<stop stop-color="#196BE3"/>
<stop offset="1" stop-color="#446494"/>
</linearGradient>
<clipPath id="clip0_242_82">
<rect width="102" height="14.1064" fill="white"/>
</clipPath>
</defs>
</svg>
