<svg width="100" height="200" viewBox="0 0 56 92" fill="none" xmlns="http://www.w3.org/2000/svg">
<path d="M42.232 66L50.4593 80.25C51.2291 81.5833 50.2668 83.25 48.7272 83.25H32.2728C30.7332 83.25 29.7709 81.5833 30.5407 80.25L38.768 66C39.5378 64.6667 41.4622 64.6667 42.232 66Z" stroke="#446494" stroke-opacity="0.7" stroke-width="2"/>
<path d="M42.232 5L50.4593 19.25C51.2291 20.5833 50.2668 22.25 48.7272 22.25H32.2728C30.7332 22.25 29.7709 20.5833 30.5407 19.25L38.768 5C39.5378 3.66667 41.4622 3.66667 42.232 5Z" stroke="#446494" stroke-opacity="0.7" stroke-width="2"/>
<path d="M12.9019 34.5C14.0566 32.5 16.9434 32.5 18.0981 34.5L26.3253 48.75C27.48 50.75 26.0366 53.25 23.7272 53.25H7.27276C4.96336 53.25 3.51998 50.75 4.67468 48.75L12.9019 34.5Z" fill="#446494" fill-opacity="0.7"/>
</svg>
