<svg width="100" height="200" viewBox="0 0 56 94" fill="none" xmlns="http://www.w3.org/2000/svg">
<path d="M42.232 41L50.4593 55.25C51.2291 56.5833 50.2668 58.25 48.7272 58.25H32.2728C30.7332 58.25 29.7709 56.5833 30.5407 55.25L38.768 41C39.5378 39.6667 41.4622 39.6667 42.232 41Z" stroke="#446494" stroke-opacity="0.7" stroke-width="2"/>
<path d="M12.9019 4.5C14.0566 2.5 16.9434 2.5 18.0981 4.5L26.3253 18.75C27.48 20.75 26.0366 23.25 23.7272 23.25H7.27276C4.96336 23.25 3.51998 20.75 4.67468 18.75L12.9019 4.5Z" fill="#446494" fill-opacity="0.7"/>
<path d="M12.9019 67.5C14.0566 65.5 16.9434 65.5 18.0981 67.5L26.3253 81.75C27.48 83.75 26.0366 86.25 23.7272 86.25H7.27276C4.96336 86.25 3.51998 83.75 4.67468 81.75L12.9019 67.5Z" fill="#446494" fill-opacity="0.7"/>
</svg>
