<svg xmlns="http://www.w3.org/2000/svg" width="220" height="200" viewBox="0 0 220 200">
<g>
<path d="M 63.81,0.32 L 63.27,0.62 L 63.38,0.72 L 63.83,0.90 L 64.42,0.92 L 65.59,0.80 L 65.90,0.56 L 65.83,0.50 L 68.94,0.98 L 69.54,1.15 L 70.82,1.68 L 71.46,1.98 L 72.77,2.75 L 74.09,3.56 L 76.59,5.67 L 77.78,6.76 L 79.69,9.11 L 80.11,9.69 L 80.76,10.83 L 81.39,12.43 L 81.49,12.81 L 82.02,14.26 L 82.33,15.07 L 83.20,17.20 L 83.67,18.32 L 84.79,20.86 L 86.59,24.83 L 86.90,25.49 L 87.68,27.16 L 88.09,28.04 L 89.03,30.08 L 89.52,31.14 L 90.61,33.47 L 91.16,34.67 L 92.34,37.22 L 94.55,41.99 L 93.93,40.66 L 92.35,37.28 L 91.59,35.69 L 90.11,32.60 L 89.43,31.18 L 88.09,28.44 L 87.49,27.22 L 86.34,24.91 L 85.84,23.94 L 84.90,22.13 L 84.53,21.44 L 83.84,20.20 L 83.61,19.82 L 83.21,19.24 L 83.13,19.21 L 82.33,19.63 L 81.98,20.52 L 81.98,21.17 L 81.79,22.03 L 81.49,22.97 L 81.27,23.60 L 80.77,24.96 L 80.45,25.78 L 79.76,27.50 L 79.36,28.48 L 78.52,30.52 L 78.04,31.63 L 77.07,33.91 L 76.54,35.12 L 74.31,40.14 L 73.10,42.80 L 64.24,62.10 L 70.72,76.21 L 70.05,74.78 L 69.51,73.63 L 68.50,71.51 L 68.01,70.49 L 67.12,68.67 L 66.69,67.80 L 65.95,66.32 L 65.60,65.62 L 65.04,64.54 L 64.78,64.06 L 64.41,63.42 L 64.11,63.04 L 64.06,63.04 L 63.69,63.69 L 63.45,64.12 L 62.73,65.55 L 62.32,66.36 L 61.28,68.49 L 60.73,69.64 L 59.42,72.38 L 58.73,73.82 L 57.20,77.08 L 56.40,78.77 L 54.68,82.47 L 53.80,84.36 L 51.93,88.41 L 49.00,94.78 L 47.99,97.00 L 45.99,101.30 L 45.00,103.42 L 43.09,107.47 L 42.14,109.46 L 40.35,113.17 L 39.47,114.98 L 37.85,118.27 L 37.06,119.85 L 35.64,122.62 L 34.97,123.93 L 33.81,126.10 L 33.27,127.09 L 32.41,128.56 L 31.52,129.89 L 30.87,130.63 L 29.43,131.92 L 28.68,132.54 L 27.09,133.56 L 26.28,134.04 L 24.58,134.79 L 23.72,135.13 L 21.95,135.60 L 21.06,135.80 L 19.27,135.97 L 18.37,136.02 L 16.59,135.90 L 15.70,135.79 L 13.98,135.36 L 13.13,135.10 L 11.50,134.34 L 10.45,133.79 L 8.56,132.54 L 7.65,131.89 L 6.04,130.46 L 5.27,129.72 L 3.96,128.14 L 3.34,127.33 L 2.34,125.63 L 1.88,124.77 L 1.20,122.97 L 0.90,122.06 L 0.57,120.19 L 0.44,119.26 L 0.46,117.35 L 0.90,114.48 L 0.94,114.32 L 1.14,113.75 L 1.26,113.42 L 1.60,112.53 L 1.80,112.05 L 2.29,110.85 L 2.55,110.22 L 3.17,108.74 L 3.50,107.96 L 4.25,106.22 L 4.63,105.31 L 5.50,103.32 L 6.39,101.27 L 8.49,96.50 L 9.59,94.02 L 12.05,88.50 L 13.32,85.66 L 16.08,79.55 L 17.49,76.44 L 20.47,69.88 L 25.13,59.70 L 26.38,56.98 L 28.68,51.97 L 29.81,49.53 L 31.88,45.04 L 32.89,42.86 L 34.75,38.86 L 35.65,36.92 L 37.30,33.39 L 38.10,31.67 L 39.57,28.57 L 40.28,27.07 L 41.58,24.36 L 42.20,23.06 L 43.34,20.72 L 43.89,19.59 L 44.89,17.59 L 45.38,16.62 L 46.25,14.92 L 46.68,14.11 L 47.44,12.68 L 48.19,11.31 L 49.42,9.26 L 50.01,8.32 L 51.02,6.95 L 52.42,5.37 L 53.64,4.17 L 56.14,2.42 L 57.41,1.64 L 60.06,0.72 L 61.41,0.36 L 63.94,0.27 M 115.93,134.74 L 114.63,135.23 L 111.98,135.72 L 110.66,135.89 L 109.44,135.83 L 110.91,135.70 L 114.08,135.23 L 115.58,134.75 L 118.44,133.64 M 108.89,135.81 L 108.03,135.77 L 106.72,135.63 L 106.72,135.63 M 119.74,132.79 L 119.08,133.23 L 119.71,132.81 L 119.88,132.70 M 99.12,132.25 L 100.23,133.02 L 99.43,132.53 L 99.04,132.19 M 121.22,131.80 L 121.22,131.81 L 121.49,131.60 M 132.04,112.45 L 130.78,115.18 L 130.17,116.49 L 129.09,118.78 L 128.58,119.88 L 127.66,121.78 L 127.22,122.69 L 126.45,124.24 L 126.08,124.98 L 125.42,126.23 L 124.79,127.41 L 123.79,129.04 L 123.31,129.76 L 122.48,130.72 L 122.07,131.15 L 122.06,131.16 L 122.47,130.73 L 123.30,129.76 L 123.78,129.04 L 124.80,127.40 L 125.43,126.21 L 126.10,124.94 L 126.47,124.20 L 127.25,122.63 L 127.70,121.71 L 128.62,119.78 L 129.14,118.67 L 130.23,116.35 L 130.85,115.03 L 132.08,112.37 M 96.44,129.81 L 97.49,130.86 L 97.34,130.73 L 96.33,129.77 L 95.90,129.19 M 174.30,101.70 L 176.27,105.91 L 177.21,107.90 L 179.07,111.80 L 179.94,113.61 L 181.63,117.12 L 182.40,118.69 L 183.89,121.70 L 184.55,122.99 L 185.78,125.42 L 186.29,126.38 L 187.23,128.13 L 187.57,128.71 L 188.16,129.68 L 187.57,128.72 L 187.23,128.13 L 186.29,126.39 L 185.79,125.43 L 184.55,123.01 L 183.90,121.72 L 182.42,118.72 L 181.65,117.15 L 179.95,113.65 L 179.09,111.85 L 177.24,107.96 L 176.30,105.97 L 174.33,101.78 L 171.31,95.25 L 171.27,95.16 M 88.58,114.88 L 89.43,116.70 L 89.87,117.65 L 90.74,119.56 L 91.16,120.47 L 91.96,122.24 L 92.29,123.00 L 94.24,126.81 L 95.38,128.52 L 94.58,127.47 L 92.44,123.49 L 92.21,122.94 L 91.46,121.23 L 91.04,120.29 L 90.02,118.03 L 87.58,112.74 M 155.66,62.66 L 156.11,63.35 L 156.70,64.44 L 157.12,65.27 L 158.05,67.11 L 158.63,68.29 L 159.85,70.79 L 160.56,72.27 L 162.03,75.35 L 162.85,77.08 L 164.53,80.65 L 165.44,82.58 L 167.29,86.55 L 168.27,88.65 L 170.25,92.93 L 170.29,93.03 L 168.32,88.78 L 167.34,86.68 L 165.48,82.74 L 164.57,80.82 L 162.87,77.28 L 162.05,75.57 L 160.56,72.53 L 159.84,71.08 L 158.60,68.61 L 158.01,67.46 L 157.06,65.66 L 156.62,64.85 L 156.00,63.81 L 155.50,63.19 L 155.43,63.20 L 155.02,63.84 L 154.77,64.26 L 154.03,65.64 L 153.62,66.41 L 152.59,68.45 L 152.04,69.54 L 150.76,72.15 L 150.09,73.53 L 148.60,76.63 L 147.83,78.24 L 146.17,81.75 L 145.32,83.56 L 143.53,87.40 L 140.94,93.03 L 140.95,93.00 L 143.77,86.88 L 145.58,82.99 L 146.43,81.17 L 148.10,77.62 L 148.87,76.00 L 150.36,72.88 L 151.03,71.50 L 152.30,68.89 L 152.85,67.80 L 153.87,65.77 L 154.27,65.00 L 154.99,63.64 L 155.22,63.25 L 155.61,62.64 M 109.53,72.64 L 109.51,72.64 L 109.37,72.46 Z" fill="rgba(48,109,181,1)"/>
<path d="M 81.14,182.58 L 81.39,183.41 L 81.51,183.91 L 81.71,185.42 L 81.80,186.24 L 81.92,188.23 L 82.00,191.56 L 82.00,192.80 L 81.93,194.97 L 81.88,195.99 L 81.72,197.64 L 81.63,198.38 L 81.40,199.38 L 81.00,200.00 L 80.85,200.00 L 80.59,199.34 L 80.47,198.91 L 80.28,197.49 L 80.19,196.69 L 80.07,194.62 L 80.03,193.52 L 80.00,190.94 L 80.00,189.49 L 80.07,187.13 L 80.11,186.03 L 80.26,184.40 L 80.35,183.68 L 80.57,182.84 L 81.00,182.50 M 196.37,182.61 L 196.59,183.01 L 197.14,184.28 L 197.43,184.98 L 198.06,186.74 L 199.03,189.75 L 201.34,197.50 L 203.87,189.75 L 204.22,188.68 L 204.92,186.74 L 205.26,185.81 L 205.88,184.28 L 206.18,183.57 L 206.66,182.61 L 207.15,182.00 L 207.25,182.00 L 207.63,182.61 L 207.84,183.01 L 208.38,184.28 L 208.66,184.98 L 209.30,186.74 L 210.29,189.75 L 212.68,197.50 L 214.94,190.25 L 215.25,189.25 L 215.89,187.39 L 216.20,186.49 L 216.80,184.96 L 217.08,184.26 L 217.57,183.23 L 218.10,182.44 L 218.42,182.24 L 218.79,182.22 L 218.85,182.27 L 218.89,182.54 L 218.90,182.70 L 218.82,183.24 L 218.76,183.55 L 218.55,184.42 L 218.43,184.90 L 218.07,186.16 L 217.88,186.84 L 217.37,188.54 L 216.42,191.66 L 216.03,192.95 L 215.27,195.14 L 214.90,196.15 L 214.22,197.72 L 213.90,198.42 L 213.34,199.29 L 212.67,199.73 L 212.51,199.67 L 212.06,199.05 L 211.82,198.66 L 211.26,197.49 L 210.97,196.85 L 210.37,195.29 L 209.50,192.67 L 209.22,191.76 L 208.68,190.09 L 208.41,189.29 L 207.92,187.97 L 207.69,187.36 L 207.32,186.53 L 206.94,186.01 L 206.87,186.01 L 206.58,186.56 L 206.42,186.91 L 206.02,188.06 L 205.80,188.69 L 205.32,190.28 L 204.57,193.00 L 204.31,194.00 L 203.75,195.78 L 203.47,196.62 L 202.91,198.00 L 202.64,198.62 L 202.13,199.47 L 201.50,200.00 L 201.32,200.00 L 200.80,199.35 L 200.52,198.93 L 199.84,197.56 L 199.49,196.81 L 198.74,194.90 L 198.37,193.89 L 197.62,191.60 L 197.25,190.43 L 196.65,188.50 L 196.38,187.60 L 195.94,186.15 L 195.74,185.48 L 195.46,184.45 L 195.34,183.98 L 195.19,183.29 L 195.13,182.98 L 195.11,182.57 L 195.12,182.39 L 195.21,182.18 L 195.85,182.00 L 195.97,182.00 M 179.29,182.88 L 179.59,183.29 L 180.39,184.71 L 180.80,185.49 L 181.75,187.50 L 183.22,190.98 L 183.72,192.22 L 184.54,194.48 L 184.93,195.56 L 185.49,197.35 L 185.73,198.17 L 185.96,199.29 L 185.88,200.00 L 185.63,200.00 L 184.95,199.27 L 184.00,197.50 L 183.80,196.96 L 183.35,196.20 L 183.11,195.87 L 182.43,195.45 L 182.05,195.27 L 180.96,195.09 L 178.63,195.00 L 177.66,195.00 L 176.29,195.08 L 175.68,195.14 L 174.86,195.43 L 174.51,195.60 L 174.06,196.18 L 173.59,197.50 L 173.42,198.19 L 172.86,199.27 L 171.98,200.00 L 171.71,200.00 L 171.29,199.93 L 171.11,199.88 L 171.00,199.75 L 171.00,199.56 L 171.30,198.58 L 171.49,198.00 L 172.09,196.42 L 172.41,195.58 L 173.21,193.63 L 173.63,192.63 L 174.53,190.55 L 174.98,189.52 L 175.87,187.53 L 176.31,186.57 L 177.10,184.92 L 177.48,184.15 L 178.07,183.06 L 178.61,182.30 L 178.75,182.25 M 152.42,182.78 L 152.55,183.06 L 152.74,184.15 L 152.82,184.79 L 152.93,186.56 L 153.00,189.94 L 153.00,198.00 L 158.02,198.00 L 159.91,198.29 L 160.32,198.38 L 160.95,198.61 L 161.50,199.00 L 161.60,199.16 L 161.38,199.42 L 161.20,199.54 L 160.47,199.73 L 160.04,199.82 L 158.84,199.93 L 156.56,200.00 L 151.00,200.00 L 151.00,190.40 L 151.08,188.23 L 151.13,187.19 L 151.29,185.42 L 151.38,184.60 L 151.61,183.41 L 152.00,182.50 L 152.16,182.40 M 115.48,182.32 L 115.70,182.52 L 116.26,183.17 L 118.12,186.00 L 118.74,187.10 L 119.87,188.81 L 120.13,189.17 L 120.54,189.66 L 120.93,189.96 L 121.01,189.96 L 121.38,189.63 L 121.59,189.42 L 122.16,188.74 L 124.31,185.86 L 124.70,185.30 L 125.45,184.32 L 125.81,183.86 L 126.46,183.14 L 126.76,182.82 L 127.23,182.44 L 127.66,182.33 L 127.73,182.40 L 127.62,182.89 L 127.53,183.18 L 127.13,184.02 L 126.89,184.48 L 126.26,185.57 L 125.10,187.36 L 124.54,188.17 L 123.68,189.65 L 123.28,190.38 L 122.72,191.76 L 122.47,192.45 L 122.17,193.81 L 122.00,195.93 L 122.00,197.05 L 121.71,198.80 L 121.62,199.17 L 121.39,199.68 L 121.00,200.00 L 120.86,200.00 L 120.61,199.68 L 120.49,199.47 L 120.29,198.80 L 120.11,198.07 L 120.00,195.93 L 120.00,194.49 L 119.30,191.79 L 119.06,191.11 L 118.37,189.72 L 117.00,187.50 L 116.60,186.92 L 115.93,185.92 L 115.61,185.45 L 115.11,184.67 L 114.66,183.93 L 114.21,183.00 L 114.06,182.60 L 114.19,182.20 L 114.94,182.00 L 115.06,182.00 M 96.14,182.58 L 96.39,183.33 L 96.51,183.78 L 96.71,185.12 L 96.80,185.85 L 96.92,187.62 L 97.00,190.56 L 97.00,198.00 L 102.10,198.00 L 103.82,198.29 L 104.19,198.38 L 104.68,198.61 L 105.00,199.00 L 105.00,199.14 L 104.61,199.39 L 104.35,199.51 L 103.53,199.71 L 103.08,199.80 L 101.94,199.92 L 100.00,200.00 L 95.00,200.00 L 95.00,189.49 L 95.07,187.13 L 95.11,186.03 L 95.26,184.40 L 95.35,183.68 L 95.57,182.84 L 96.00,182.50 M 66.40,182.66 L 66.53,183.08 L 66.72,184.51 L 66.81,185.31 L 66.93,187.41 L 67.00,191.17 L 67.00,192.43 L 66.95,194.67 L 66.91,195.74 L 66.80,197.44 L 66.74,198.22 L 66.59,199.20 L 66.33,199.67 L 66.24,199.57 L 66.09,198.88 L 66.03,198.45 L 65.93,197.21 L 65.90,196.54 L 65.87,194.93 L 65.91,192.26 L 65.94,191.33 L 65.94,189.70 L 65.93,188.93 L 65.85,187.72 L 65.80,187.18 L 65.66,186.52 L 65.37,186.29 L 65.26,186.40 L 64.86,187.08 L 64.64,187.49 L 64.05,188.65 L 63.74,189.28 L 63.05,190.78 L 61.98,193.23 L 61.62,194.07 L 60.88,195.64 L 60.52,196.40 L 59.83,197.67 L 59.50,198.26 L 58.94,199.10 L 58.34,199.72 L 58.20,199.77 L 57.69,199.28 L 57.41,198.95 L 56.70,197.82 L 56.32,197.20 L 55.49,195.58 L 54.20,192.78 L 51.09,185.50 L 51.04,192.75 L 51.04,193.78 L 50.95,195.63 L 50.90,196.50 L 50.73,197.93 L 50.63,198.57 L 50.40,199.45 L 50.00,200.00 L 49.85,200.00 L 49.60,199.38 L 49.47,198.97 L 49.28,197.64 L 49.19,196.89 L 49.07,194.97 L 49.03,193.95 L 49.00,191.56 L 49.00,190.38 L 49.08,188.20 L 49.13,187.16 L 49.30,185.39 L 49.39,184.57 L 49.63,183.39 L 50.03,182.48 L 50.18,182.39 L 50.71,182.82 L 51.01,183.13 L 51.80,184.26 L 52.21,184.91 L 53.16,186.61 L 54.68,189.67 L 55.06,190.49 L 55.71,191.88 L 56.02,192.53 L 56.55,193.59 L 56.81,194.08 L 57.23,194.84 L 57.44,195.19 L 57.78,195.68 L 58.10,196.10 L 58.57,196.22 L 59.14,195.50 L 59.68,194.22 L 60.64,191.98 L 61.10,190.91 L 61.92,189.07 L 62.30,188.19 L 62.98,186.72 L 63.31,186.03 L 63.86,184.91 L 64.13,184.38 L 64.58,183.57 L 64.80,183.20 L 65.16,182.67 L 65.99,182.00 L 66.14,182.00 M 30.51,182.34 L 30.98,182.95 L 31.24,183.32 L 31.89,184.48 L 32.23,185.11 L 32.98,186.66 L 34.11,189.26 L 34.58,190.41 L 35.37,192.35 L 35.74,193.27 L 36.33,194.80 L 36.61,195.52 L 37.03,196.68 L 37.21,197.22 L 37.46,198.07 L 37.57,198.45 L 37.67,199.02 L 37.70,199.27 L 37.66,199.61 L 37.09,200.00 L 36.80,200.00 L 36.16,199.27 L 35.41,197.50 L 35.27,196.95 L 34.94,196.18 L 34.74,195.85 L 34.14,195.43 L 33.79,195.25 L 32.72,195.08 L 30.39,195.00 L 29.18,195.00 L 27.29,195.24 L 26.89,195.31 L 26.35,195.49 L 26.00,195.81 L 26.00,196.14 L 25.54,197.10 L 25.27,197.59 L 24.53,198.54 L 24.16,198.98 L 23.51,199.50 L 23.37,199.58 L 23.17,199.59 L 23.09,199.56 L 23.03,199.31 L 23.02,199.01 L 23.29,197.86 L 23.46,197.22 L 24.01,195.57 L 24.62,193.83 L 26.30,189.75 L 26.73,188.76 L 27.59,186.88 L 28.02,185.98 L 28.79,184.46 L 29.16,183.77 L 29.76,182.82 L 30.37,182.29 M 10.56,182.16 L 11.57,182.26 L 12.03,182.33 L 12.63,182.53 L 13.00,182.95 L 13.00,183.09 L 12.65,183.36 L 12.42,183.48 L 11.68,183.69 L 8.50,184.00 L 7.38,184.00 L 5.91,184.06 L 5.28,184.11 L 4.57,184.44 L 4.29,184.66 L 4.07,185.48 L 4.00,187.50 L 4.00,188.37 L 4.07,189.52 L 4.15,190.01 L 4.57,190.56 L 4.85,190.78 L 5.91,190.94 L 8.50,191.00 L 9.74,191.00 L 11.68,191.29 L 12.09,191.38 L 12.64,191.61 L 13.00,192.00 L 13.00,192.14 L 12.64,192.39 L 12.42,192.51 L 11.68,192.71 L 8.50,193.00 L 7.38,193.00 L 5.91,193.06 L 5.28,193.11 L 4.57,193.44 L 4.29,193.66 L 4.07,194.48 L 4.00,196.50 L 4.00,197.46 L 3.69,198.97 L 3.60,199.29 L 3.36,199.72 L 2.96,200.00 L 2.80,200.00 L 2.54,199.42 L 2.42,199.03 L 2.27,197.71 L 2.21,196.97 L 2.16,194.97 L 2.15,193.89 L 2.21,191.25 L 2.50,182.50 L 7.75,182.20 L 8.55,182.15 L 9.92,182.15 M 30.22,185.33 L 30.10,185.49 L 29.79,186.04 L 29.45,186.65 L 28.62,188.40 L 28.20,189.30 L 27.50,191.00 L 27.35,191.39 L 27.14,192.01 L 27.00,192.62 L 27.00,192.67 L 27.27,192.77 L 27.45,192.81 L 28.01,192.89 L 30.45,193.00 L 33.90,193.00 L 32.34,189.25 L 31.92,188.22 L 31.15,186.50 L 30.98,186.12 L 30.71,185.58 L 30.45,185.14 L 30.42,185.10 M 177.40,187.50 L 176.90,188.64 L 176.34,190.28 L 176.14,191.01 L 176.21,191.96 L 176.33,192.36 L 177.07,192.78 L 179.00,193.00 L 179.82,193.00 L 181.12,192.89 L 181.39,192.85 L 181.76,192.77 L 181.92,192.72 L 182.00,192.62 L 182.00,192.57 L 181.87,192.17 L 181.79,191.93 L 181.52,191.22 L 180.35,188.37 L 178.71,184.50 M 186.97,152.49 L 187.97,152.71 L 189.65,153.60 L 190.43,154.11 L 191.65,155.46 L 192.20,156.18 L 192.96,157.84 L 193.27,158.70 L 193.55,160.52 L 193.62,161.43 L 193.41,163.26 L 193.24,164.16 L 192.51,165.84 L 192.09,166.65 L 190.85,168.03 L 188.40,169.61 L 187.48,169.99 L 185.96,170.57 L 185.63,170.69 L 185.15,170.85 L 184.78,170.94 L 184.70,170.92 L 183.95,170.64 L 183.51,170.47 L 182.36,170.01 L 181.81,169.79 L 180.82,169.13 L 180.35,168.77 L 179.50,167.88 L 178.70,166.93 L 177.62,164.52 L 177.18,163.27 L 176.93,160.55 L 177.62,156.54 L 177.86,155.92 L 179.04,154.75 L 179.71,154.20 L 181.45,153.31 L 182.36,152.92 L 184.29,152.47 M 163.52,152.07 L 165.33,152.42 L 167.56,153.42 L 167.90,153.67 L 168.38,154.12 L 168.59,154.34 L 168.83,154.72 L 169.02,155.08 L 168.77,155.49 L 168.56,155.64 L 167.67,155.52 L 165.84,154.60 L 165.13,154.10 L 163.94,153.47 L 163.37,153.22 L 162.39,153.09 L 161.91,153.08 L 161.01,153.44 L 159.61,154.53 L 159.07,155.07 L 158.60,156.12 L 158.47,156.64 L 158.82,157.61 L 159.10,158.08 L 160.24,158.95 L 162.84,160.08 L 163.85,160.41 L 165.79,161.21 L 166.24,161.40 L 166.98,161.77 L 167.75,162.25 L 168.25,162.65 L 168.78,163.80 L 168.97,164.42 L 168.92,165.80 L 168.82,166.50 L 168.23,167.82 L 166.78,169.44 L 166.03,169.96 L 164.53,170.59 L 163.78,170.84 L 162.28,170.92 L 161.53,170.89 L 160.04,170.41 L 159.30,170.11 L 157.86,169.09 L 157.21,168.56 L 156.40,167.53 L 156.25,167.29 L 156.12,166.89 L 156.20,166.47 L 156.40,166.27 L 157.17,166.44 L 158.52,167.38 L 159.02,167.88 L 160.45,168.52 L 161.20,168.78 L 162.87,168.95 L 163.69,168.97 L 165.21,168.66 L 166.89,167.63 L 167.31,167.13 L 167.59,166.07 L 167.65,165.54 L 167.28,164.52 L 167.02,164.03 L 166.09,163.21 L 164.14,162.37 L 163.36,162.19 L 161.96,161.70 L 161.29,161.43 L 160.13,160.78 L 159.58,160.45 L 158.67,159.69 L 158.25,159.29 L 157.62,158.45 L 157.35,158.03 L 157.02,157.14 L 156.90,156.69 L 156.89,155.79 L 156.93,155.34 L 157.27,154.46 L 158.20,153.20 L 158.61,152.79 L 160.02,152.30 L 160.79,152.11 L 162.61,152.05 M 57.63,152.46 L 58.53,152.61 L 60.22,153.25 L 61.01,153.62 L 62.21,154.58 L 63.00,156.18 L 63.00,156.34 L 62.86,156.51 L 62.77,156.56 L 62.48,156.52 L 61.17,155.65 L 60.59,155.13 L 59.14,154.47 L 58.39,154.21 L 56.77,154.06 L 55.97,154.05 L 54.45,154.43 L 52.57,155.57 L 52.34,155.81 L 51.93,156.52 L 51.74,156.91 L 51.43,157.89 L 51.00,161.42 L 51.00,162.26 L 51.21,163.76 L 51.35,164.48 L 51.81,165.71 L 52.07,166.29 L 52.75,167.23 L 53.12,167.66 L 53.98,168.30 L 54.44,168.57 L 55.46,168.88 L 55.98,168.99 L 57.13,168.94 L 57.71,168.87 L 58.94,168.46 L 60.84,167.40 L 61.54,166.91 L 62.58,166.40 L 63.03,166.22 L 63.51,166.27 L 63.66,166.36 L 63.46,166.91 L 62.26,168.22 L 61.63,168.77 L 60.32,169.56 L 59.66,169.91 L 58.28,170.30 L 57.59,170.44 L 56.19,170.41 L 55.49,170.35 L 54.09,169.90 L 53.21,169.55 L 51.82,168.63 L 51.18,168.13 L 50.25,166.87 L 49.84,166.18 L 49.34,164.51 L 49.03,161.47 L 49.02,160.22 L 49.40,158.08 L 49.65,157.08 L 50.53,155.43 L 51.04,154.68 L 52.42,153.56 L 55.04,152.49 L 55.84,152.32 M 19.61,153.21 L 19.99,153.81 L 20.17,154.18 L 20.45,155.41 L 20.58,156.10 L 20.76,157.96 L 20.91,161.45 L 20.94,162.77 L 20.91,164.96 L 20.88,165.98 L 20.74,167.57 L 20.66,168.28 L 20.46,169.24 L 20.35,169.64 L 20.10,169.96 L 19.97,170.04 L 19.71,169.70 L 19.58,169.44 L 19.34,168.43 L 19.22,167.83 L 19.02,166.12 L 18.79,162.75 L 18.50,155.51 L 15.59,162.75 L 15.19,163.75 L 14.37,165.57 L 13.96,166.43 L 13.19,167.87 L 12.82,168.53 L 12.19,169.43 L 11.50,170.00 L 11.34,170.00 L 10.81,169.43 L 10.52,169.06 L 9.81,167.87 L 9.44,167.21 L 8.63,165.57 L 7.41,162.75 L 4.50,155.51 L 4.21,162.75 L 4.15,164.03 L 3.99,166.05 L 3.90,166.97 L 3.69,168.31 L 3.57,168.89 L 3.33,169.56 L 3.20,169.81 L 2.95,169.82 L 2.82,169.74 L 2.59,169.11 L 2.48,168.72 L 2.29,167.46 L 2.20,166.76 L 2.08,164.90 L 2.03,163.89 L 2.00,161.43 L 2.00,160.50 L 2.01,158.92 L 2.02,158.18 L 2.06,156.96 L 2.08,156.38 L 2.14,155.47 L 2.18,155.05 L 2.29,154.40 L 2.41,153.82 L 2.79,153.30 L 3.66,153.18 L 3.90,153.22 L 4.52,153.78 L 4.85,154.13 L 5.61,155.21 L 6.00,155.80 L 6.81,157.28 L 8.00,159.82 L 8.37,160.69 L 9.10,162.27 L 9.47,163.03 L 10.13,164.28 L 10.45,164.85 L 10.97,165.64 L 11.50,166.14 L 11.61,166.14 L 12.03,165.64 L 12.26,165.32 L 12.87,164.28 L 13.18,163.71 L 13.90,162.27 L 15.00,159.82 L 15.50,158.64 L 16.39,156.75 L 16.82,155.89 L 17.58,154.62 L 17.94,154.06 L 18.57,153.41 L 18.86,153.17 L 19.37,153.14 M 36.11,152.90 L 36.39,153.18 L 36.99,154.26 L 37.30,154.88 L 38.03,156.64 L 39.33,160.00 L 40.01,161.79 L 41.28,165.10 L 41.57,165.85 L 42.03,167.06 L 42.51,168.25 L 42.71,168.76 L 42.71,169.51 L 42.13,170.00 L 41.83,170.00 L 41.17,169.27 L 40.41,167.50 L 40.27,166.96 L 39.94,166.19 L 39.75,165.86 L 39.16,165.43 L 38.81,165.26 L 37.79,165.08 L 35.55,165.00 L 34.67,165.00 L 33.35,165.10 L 32.76,165.17 L 31.90,165.47 L 31.51,165.65 L 30.93,166.23 L 30.18,167.50 L 29.87,168.19 L 29.12,169.27 L 28.15,170.00 L 28.03,170.00 L 28.05,169.39 L 28.11,168.99 L 28.44,167.72 L 28.64,167.02 L 29.24,165.26 L 29.57,164.33 L 30.38,162.25 L 31.01,160.69 L 32.05,158.14 L 32.54,156.96 L 33.35,155.17 L 33.74,154.37 L 34.40,153.33 L 34.71,152.90 L 35.28,152.58 L 35.56,152.51 M 80.21,153.25 L 81.14,153.43 L 82.43,154.09 L 83.00,154.48 L 83.64,155.63 L 84.00,158.00 L 84.00,158.90 L 83.66,160.30 L 83.42,160.93 L 82.57,161.85 L 82.07,162.25 L 80.65,162.72 L 77.80,163.00 L 76.88,163.00 L 75.66,163.07 L 75.13,163.13 L 74.52,163.48 L 74.28,163.71 L 74.08,164.52 L 74.00,166.50 L 74.00,167.46 L 73.71,168.97 L 73.62,169.29 L 73.39,169.72 L 73.00,170.00 L 72.85,170.00 L 72.60,169.38 L 72.47,168.97 L 72.28,167.62 L 72.19,166.88 L 72.07,164.94 L 72.03,163.91 L 72.00,161.50 L 72.00,153.00 L 78.16,153.00 M 93.39,153.28 L 93.51,153.45 L 93.71,154.03 L 94.00,156.50 L 94.00,160.00 L 105.00,160.00 L 105.00,155.54 L 105.29,154.03 L 105.38,153.71 L 105.61,153.28 L 106.00,153.00 L 106.15,153.00 L 106.40,153.62 L 106.53,154.03 L 106.72,155.38 L 106.81,156.12 L 106.93,158.06 L 107.00,161.50 L 107.00,162.75 L 106.93,164.94 L 106.88,165.97 L 106.72,167.62 L 106.63,168.38 L 106.40,169.38 L 106.00,170.00 L 105.86,170.00 L 105.61,169.68 L 105.49,169.48 L 105.29,168.82 L 105.00,166.00 L 105.00,162.00 L 94.00,162.00 L 94.00,167.10 L 93.71,168.82 L 93.62,169.19 L 93.39,169.68 L 93.00,170.00 L 92.85,170.00 L 92.60,169.38 L 92.47,168.97 L 92.28,167.62 L 92.19,166.88 L 92.07,164.94 L 92.03,163.91 L 92.00,161.50 L 92.00,160.25 L 92.07,158.06 L 92.12,157.03 L 92.28,155.38 L 92.37,154.62 L 92.60,153.62 L 93.00,153.00 L 93.14,153.00 M 125.69,152.82 L 126.23,152.86 L 127.03,152.99 L 127.66,153.25 L 127.72,153.35 L 127.44,153.54 L 127.23,153.63 L 126.50,153.78 L 126.08,153.85 L 124.99,153.94 L 123.06,154.00 L 122.44,154.00 L 121.42,154.01 L 120.94,154.02 L 120.18,154.06 L 119.47,154.11 L 118.67,154.40 L 118.35,154.59 L 118.09,155.29 L 118.00,157.00 L 118.00,157.72 L 118.09,158.69 L 118.18,159.10 L 118.62,159.58 L 118.92,159.78 L 119.97,159.94 L 122.50,160.00 L 123.74,160.00 L 125.68,160.29 L 126.09,160.38 L 126.64,160.61 L 127.00,161.00 L 127.00,161.14 L 126.64,161.39 L 126.42,161.51 L 125.68,161.71 L 122.50,162.00 L 121.38,162.00 L 119.91,162.06 L 119.28,162.11 L 118.58,162.44 L 118.29,162.66 L 118.08,163.47 L 118.00,165.45 L 118.00,166.31 L 118.08,167.45 L 118.16,167.94 L 118.66,168.51 L 118.99,168.75 L 120.22,169.00 L 120.59,169.05 L 121.52,169.13 L 123.25,169.26 L 128.50,169.63 L 122.25,169.82 L 116.00,170.00 L 116.00,153.19 L 121.60,152.84 L 122.37,152.80 L 123.81,152.77 L 124.50,152.77 M 144.54,153.35 L 145.09,153.46 L 145.96,153.73 L 146.80,154.20 L 147.27,154.67 L 147.78,155.88 L 147.96,156.52 L 147.92,157.88 L 147.83,158.55 L 147.27,159.82 L 145.89,161.36 L 143.78,162.84 L 146.51,166.42 L 147.00,167.06 L 147.68,168.06 L 147.97,168.52 L 148.27,169.17 L 148.37,169.46 L 148.29,169.80 L 147.78,170.00 L 147.58,170.00 L 147.06,169.72 L 146.79,169.55 L 146.19,168.97 L 144.43,166.50 L 144.10,165.89 L 143.45,164.93 L 143.12,164.49 L 142.45,163.84 L 142.11,163.56 L 141.40,163.21 L 140.27,163.00 L 139.79,163.00 L 139.10,163.13 L 138.80,163.22 L 138.41,163.64 L 138.25,163.89 L 138.08,164.70 L 138.00,166.50 L 138.00,167.46 L 137.71,168.97 L 137.62,169.29 L 137.39,169.72 L 137.00,170.00 L 136.85,170.00 L 136.60,169.38 L 136.47,168.97 L 136.28,167.62 L 136.19,166.88 L 136.07,164.94 L 136.03,163.91 L 136.00,161.50 L 136.00,153.00 L 142.12,153.00 M 204.25,153.55 L 204.66,153.90 L 205.73,155.04 L 206.30,155.67 L 207.58,157.26 L 209.59,159.96 L 210.27,160.91 L 211.54,162.66 L 212.15,163.49 L 213.21,164.88 L 213.71,165.52 L 214.44,166.39 L 215.03,166.96 L 215.11,166.96 L 215.21,166.42 L 215.25,166.07 L 215.29,164.93 L 215.31,164.30 L 215.28,162.71 L 215.17,160.00 L 215.10,158.82 L 215.06,156.92 L 215.06,156.04 L 215.15,154.73 L 215.21,154.15 L 215.42,153.43 L 215.89,153.00 L 216.07,153.00 L 216.37,153.54 L 216.51,153.91 L 216.72,155.16 L 216.81,155.87 L 216.93,157.82 L 217.00,161.50 L 217.00,162.73 L 216.93,164.90 L 216.88,165.93 L 216.72,167.59 L 216.63,168.35 L 216.41,169.36 L 216.01,170.00 L 215.88,170.00 L 215.22,169.44 L 214.83,169.09 L 213.77,167.93 L 213.21,167.29 L 211.89,165.69 L 209.76,162.96 L 204.50,155.91 L 204.21,162.96 L 204.15,164.20 L 203.99,166.18 L 203.90,167.08 L 203.69,168.38 L 203.57,168.95 L 203.33,169.59 L 203.20,169.83 L 202.95,169.82 L 202.82,169.74 L 202.59,169.10 L 202.48,168.71 L 202.29,167.46 L 202.20,166.76 L 202.08,164.92 L 202.03,163.92 L 202.00,161.50 L 202.00,159.89 L 202.07,157.45 L 202.11,156.35 L 202.29,154.83 L 202.39,154.17 L 202.70,153.42 L 203.34,153.00 L 203.53,153.00 M 182.56,154.50 L 181.81,154.83 L 180.64,155.92 L 180.11,156.54 L 179.43,158.18 L 179.00,161.15 L 179.00,162.06 L 179.30,163.67 L 179.49,164.44 L 180.13,165.76 L 180.48,166.37 L 181.37,167.36 L 181.84,167.81 L 182.91,168.44 L 183.47,168.70 L 184.65,168.93 L 185.25,168.99 L 186.48,168.78 L 187.09,168.62 L 188.27,167.95 L 188.85,167.55 L 189.93,166.37 L 190.51,165.62 L 191.29,164.20 L 191.62,163.50 L 191.90,162.11 L 191.97,161.41 L 191.74,159.97 L 190.85,157.68 L 190.48,156.98 L 189.74,155.92 L 189.36,155.45 L 188.53,154.80 L 188.08,154.52 L 187.03,154.20 L 185.08,154.02 L 184.15,154.01 M 34.99,155.88 L 34.81,156.08 L 34.38,156.81 L 33.64,158.37 L 33.19,159.44 L 32.48,161.22 L 32.33,161.60 L 32.13,162.17 L 32.00,162.62 L 32.00,162.67 L 32.28,162.77 L 32.46,162.81 L 33.04,162.89 L 35.53,163.00 L 36.40,163.00 L 37.54,162.96 L 38.01,162.91 L 38.43,162.65 L 38.57,162.48 L 38.41,161.84 L 38.27,161.45 L 37.66,160.25 L 37.28,159.49 L 36.54,157.87 L 35.78,156.00 L 35.70,155.76 L 35.46,155.61 L 35.33,155.59 M 75.88,154.00 L 75.13,154.12 L 74.80,154.22 L 74.40,154.66 L 74.23,154.94 L 74.07,155.87 L 74.00,158.00 L 74.00,158.93 L 74.07,160.19 L 74.13,160.74 L 74.42,161.39 L 74.61,161.66 L 75.27,161.90 L 76.80,162.00 L 77.57,162.00 L 79.13,161.65 L 79.85,161.43 L 80.80,160.80 L 81.23,160.37 L 81.73,159.21 L 81.92,158.60 L 81.95,157.33 L 81.91,156.71 L 81.51,155.64 L 80.42,154.61 L 79.98,154.44 L 78.59,154.18 L 76.42,154.00 M 140.26,154.00 L 139.34,154.10 L 138.94,154.17 L 138.46,154.55 L 138.26,154.79 L 138.08,155.60 L 138.00,157.50 L 138.00,158.33 L 138.08,159.45 L 138.15,159.93 L 138.50,160.50 L 138.72,160.73 L 139.53,160.92 L 141.46,161.00 L 142.06,161.00 L 143.08,160.89 L 143.56,160.81 L 144.35,160.54 L 145.08,160.22 L 145.96,159.07 L 146.31,158.42 L 146.31,157.19 L 146.21,156.59 L 145.44,155.57 L 144.97,155.09 L 143.57,154.43 L 140.93,154.00 M 76.31,88.36 L 78.76,93.64 L 80.34,97.00 L 81.09,98.57 L 82.56,101.64 L 83.25,103.04 L 84.58,105.75 L 85.18,106.94 L 86.34,109.21 L 86.84,110.16 L 87.78,111.92 L 88.16,112.59 L 88.86,113.78 L 89.10,114.13 L 89.50,114.67 L 89.59,114.67 L 90.02,114.28 L 90.47,113.66 L 90.78,113.18 L 91.43,112.12 L 91.82,111.44 L 92.64,109.99 L 93.11,109.13 L 94.07,107.35 L 94.59,106.34 L 95.67,104.27 L 96.24,103.15 L 98.60,98.42 L 99.85,95.83 L 103.44,88.52 L 104.55,86.32 L 105.08,85.32 L 106.09,83.39 L 106.55,82.53 L 107.43,80.91 L 107.81,80.23 L 108.54,78.96 L 108.84,78.49 L 109.38,77.64 L 109.57,77.38 L 109.90,77.00 L 109.97,77.00 L 110.41,77.32 L 110.82,77.85 L 111.08,78.25 L 111.64,79.14 L 111.96,79.71 L 112.64,80.92 L 113.02,81.63 L 114.63,84.73 L 115.53,86.58 L 117.39,90.43 L 118.35,92.52 L 120.28,96.76 L 121.22,98.90 L 123.05,103.15 L 123.88,105.15 L 125.44,109.03 L 126.06,110.70 L 126.65,112.32 L 126.89,113.04 L 127.35,114.42 L 127.51,115.00 L 128.78,119.44 L 128.62,119.78 L 127.70,121.71 L 127.25,122.63 L 126.47,124.20 L 126.10,124.94 L 125.43,126.21 L 124.80,127.40 L 123.78,129.04 L 123.30,129.76 L 122.47,130.73 L 122.05,131.17 L 121.20,131.82 L 119.71,132.81 L 118.49,133.62 L 115.58,134.75 L 114.08,135.23 L 110.91,135.70 L 109.33,135.84 L 106.33,135.60 L 105.61,135.49 L 104.28,135.14 L 103.64,134.94 L 102.50,134.40 L 101.23,133.70 L 99.12,132.25 L 98.12,131.50 L 96.44,129.81 L 95.64,128.91 L 94.24,126.81 L 92.29,123.00 L 91.96,122.24 L 91.16,120.47 L 90.74,119.56 L 89.87,117.65 L 89.43,116.70 L 88.58,114.88 L 87.47,112.50 L 87.30,112.16 L 86.77,111.03 L 86.48,110.40 L 85.72,108.77 L 85.31,107.89 L 84.35,105.82 L 83.84,104.73 L 82.72,102.30 L 82.14,101.04 L 80.88,98.32 L 80.24,96.94 L 78.89,94.01 L 74.66,84.80 L 64.24,62.10 L 64.26,62.05 M 182.04,117.92 L 182.81,119.45 L 184.29,122.37 L 184.93,123.61 L 186.16,125.93 L 186.68,126.85 L 187.64,128.53 L 188.00,129.11 L 188.67,130.10 L 188.88,130.31 L 190.26,131.51 L 191.38,132.32 L 191.99,132.70 L 194.50,134.13 L 195.58,134.51 L 197.40,135.14 L 196.90,135.04 L 195.23,134.50 L 194.40,134.19 L 192.78,133.37 L 191.99,132.93 L 190.47,131.83 L 188.31,129.85 L 188.16,129.68 L 187.57,128.71 L 187.23,128.13 L 186.29,126.38 L 185.78,125.42 L 184.55,122.99 L 183.89,121.70 L 182.40,118.69 L 181.63,117.12 L 180.44,114.64 M 207.84,134.37 L 206.25,134.97 L 206.03,135.01 L 206.22,134.96 L 207.92,134.33 M 210.93,132.95 L 210.78,133.02 L 211.39,132.61 M 219.28,119.07 L 219.03,120.97 L 218.87,121.90 L 218.35,123.65 L 218.06,124.51 L 217.30,126.11 L 216.89,126.89 L 215.91,128.32 L 214.88,129.70 L 214.11,130.37 L 215.03,129.43 L 215.61,128.69 L 216.70,127.16 L 217.14,126.34 L 217.98,124.65 L 218.29,123.76 L 218.85,121.94 L 219.02,120.99 L 219.28,119.06 M 146.43,81.17 L 145.58,82.99 L 143.77,86.88 L 140.95,93.00 L 139.85,95.40 L 137.87,99.75 L 136.90,101.85 L 135.18,105.63 L 134.34,107.45 L 132.85,110.70 L 132.13,112.26 L 130.85,115.03 L 130.23,116.35 L 129.36,118.21 L 130.32,116.00 L 131.75,112.73 L 132.82,110.34 L 133.39,109.06 L 135.81,103.73 L 137.14,100.86 L 142.66,88.99 L 145.35,83.37 L 147.98,77.88 L 148.08,77.66 M 81.50,22.96 L 81.27,23.59 L 80.77,24.95 L 80.45,25.77 L 79.76,27.50 L 79.36,28.48 L 78.52,30.51 L 78.05,31.62 L 77.07,33.90 L 76.54,35.11 L 74.32,40.13 L 74.31,40.14 L 76.54,35.12 L 77.07,33.91 L 78.04,31.63 L 78.52,30.52 L 79.36,28.48 L 79.76,27.50 L 80.45,25.78 L 80.77,24.96 L 81.27,23.60 L 81.49,22.97 L 81.79,22.03 L 81.98,21.17 L 81.79,22.03 M 65.73,0.40 L 65.90,0.56 L 65.59,0.80 L 64.42,0.92 L 63.83,0.90 L 63.38,0.72 L 63.27,0.62 L 63.81,0.32 L 64.17,0.17 L 64.92,0.12 Z" fill="rgba(54,164,189,1)"/>
<path d="M 157.44,0.60 L 158.59,0.72 L 160.85,1.31 L 161.97,1.66 L 164.11,2.70 L 167.13,4.76 L 167.61,5.17 L 168.73,6.48 L 169.31,7.21 L 170.54,9.06 L 171.17,10.04 L 172.44,12.30 L 173.14,13.69 L 173.06,18.50 L 172.65,21.80 L 172.33,23.08 L 172.10,23.82 L 171.60,25.35 L 171.27,26.25 L 170.55,28.13 L 170.10,29.22 L 169.14,31.53 L 168.55,32.87 L 167.31,35.68 L 166.57,37.31 L 165.02,40.72 L 164.11,42.68 L 160.73,50.19 L 159.74,52.47 L 159.30,53.52 L 158.45,55.56 L 158.08,56.46 L 157.39,58.20 L 157.11,58.93 L 156.60,60.31 L 156.42,60.84 L 156.12,61.81 L 156.05,62.12 L 155.97,62.62 L 156.02,62.68 L 156.48,63.49 L 157.06,64.66 L 157.48,65.52 L 158.40,67.42 L 158.96,68.62 L 160.17,71.17 L 160.87,72.66 L 162.33,75.77 L 163.14,77.50 L 164.80,81.08 L 165.70,83.01 L 167.52,86.97 L 168.49,89.06 L 170.44,93.30 L 171.44,95.50 L 174.67,102.49 L 176.71,106.85 L 177.67,108.87 L 179.55,112.80 L 180.41,114.58 L 182.09,118.01 L 182.85,119.53 L 184.32,122.43 L 184.96,123.65 L 186.16,125.93 L 186.16,125.93 L 184.93,123.61 L 184.29,122.37 L 182.81,119.45 L 182.04,117.92 L 180.34,114.46 L 179.47,112.66 L 177.58,108.71 L 176.61,106.67 L 174.55,102.28 L 171.30,95.25 L 170.28,93.03 L 168.31,88.77 L 167.33,86.67 L 165.48,82.72 L 164.58,80.79 L 162.89,77.24 L 162.07,75.52 L 160.59,72.46 L 159.88,70.99 L 158.65,68.50 L 158.07,67.34 L 157.13,65.51 L 156.71,64.69 L 156.10,63.61 L 155.63,62.94 L 155.58,62.94 L 155.30,63.35 L 155.14,63.62 L 154.63,64.54 L 154.35,65.06 L 153.63,66.43 L 153.26,67.17 L 152.37,68.93 L 151.90,69.86 L 150.86,71.96 L 150.33,73.05 L 149.17,75.43 L 147.98,77.88 L 145.35,83.37 L 142.66,88.99 L 137.14,100.86 L 135.81,103.73 L 133.39,109.06 L 132.82,110.34 L 131.75,112.73 L 130.32,116.00 L 128.80,119.50 L 127.51,115.00 L 127.35,114.42 L 126.89,113.04 L 126.65,112.32 L 126.06,110.70 L 125.44,109.03 L 123.88,105.15 L 123.05,103.15 L 121.22,98.90 L 120.28,96.76 L 118.35,92.52 L 117.39,90.43 L 115.53,86.58 L 114.63,84.73 L 113.02,81.63 L 112.64,80.92 L 111.96,79.71 L 111.64,79.14 L 111.08,78.25 L 110.82,77.85 L 110.41,77.32 L 109.97,77.00 L 109.90,77.00 L 109.57,77.38 L 109.38,77.64 L 108.84,78.49 L 108.54,78.96 L 107.81,80.23 L 107.43,80.91 L 106.55,82.53 L 106.09,83.39 L 105.08,85.32 L 104.55,86.32 L 103.44,88.52 L 101.69,92.09 L 110.01,74.90 L 106.05,66.70 L 105.07,64.65 L 104.27,62.96 L 103.81,61.98 L 102.84,59.93 L 102.31,58.79 L 101.22,56.45 L 100.64,55.19 L 98.22,49.99 L 96.96,47.25 L 94.42,41.72 L 93.84,40.45 L 93.93,40.66 L 96.39,45.96 L 97.22,47.78 L 98.85,51.27 L 99.65,52.98 L 101.18,56.23 L 101.93,57.81 L 103.33,60.73 L 104.01,62.15 L 105.24,64.68 L 105.84,65.89 L 106.88,67.95 L 107.37,68.92 L 108.17,70.44 L 108.53,71.13 L 109.06,72.04 L 109.51,72.64 L 109.58,72.66 L 110.00,72.05 L 110.26,71.65 L 111.04,70.26 L 111.46,69.47 L 112.55,67.38 L 113.12,66.25 L 114.47,63.55 L 115.17,62.13 L 116.74,58.89 L 117.54,57.22 L 119.29,53.54 L 120.18,51.66 L 122.07,47.62 L 125.00,41.27 L 126.99,36.91 L 130.82,28.75 L 131.74,26.78 L 133.50,23.11 L 134.36,21.32 L 135.94,18.07 L 136.70,16.51 L 138.06,13.77 L 138.71,12.48 L 139.81,10.36 L 140.31,9.39 L 141.10,7.98 L 141.87,6.76 L 142.65,5.82 L 144.44,4.26 L 145.37,3.53 L 147.39,2.38 L 148.43,1.86 L 150.61,1.14 L 151.72,0.83 L 153.99,0.54 L 155.14,0.45 M 90.00,114.26 L 90.47,113.60 L 90.78,113.10 L 91.47,111.98 L 91.88,111.26 L 92.74,109.73 L 93.23,108.83 L 94.25,106.94 L 94.81,105.88 L 95.95,103.69 L 96.55,102.50 L 98.62,98.39 L 98.60,98.42 L 96.24,103.15 L 95.67,104.27 L 94.59,106.34 L 94.07,107.35 L 93.11,109.13 L 92.64,109.99 L 91.82,111.44 L 91.43,112.12 L 90.78,113.18 L 90.47,113.66 L 90.02,114.28 L 89.59,114.67 L 89.56,114.67 M 174.29,15.98 L 175.72,19.08 L 178.44,24.97 L 179.78,27.87 L 182.34,33.39 L 183.59,36.10 L 184.50,38.06 L 182.73,34.27 L 180.73,30.00 L 177.40,22.82 L 176.39,20.63 L 175.97,19.72 L 175.20,18.05 L 174.95,17.50 L 174.09,15.59 M 83.21,19.24 L 83.61,19.82 L 83.84,20.20 L 84.49,21.37 L 84.39,21.21 L 83.59,20.02 L 83.29,19.69 L 82.89,19.34 L 83.13,19.21 M 81.98,20.54 L 81.98,20.52 L 81.99,20.51 M 218.69,114.77 L 218.49,114.14 L 218.06,112.82 L 217.78,112.04 L 217.17,110.39 L 216.80,109.42 L 216.00,107.41 L 215.53,106.25 L 214.52,103.83 L 213.93,102.45 L 212.70,99.58 L 211.99,97.97 L 210.68,94.97 L 211.63,97.08 L 212.51,99.05 L 213.98,102.37 L 214.68,103.94 L 215.80,106.55 L 216.33,107.78 L 217.15,109.79 L 217.53,110.73 L 218.11,112.23 L 218.36,112.93 L 218.73,114.04 L 218.89,114.56 L 219.09,115.37 L 219.17,115.76 L 219.26,116.38 L 219.30,118.07 L 218.96,115.81 Z" fill="rgba(70,194,156,1)"/>
<path d="M 83.29,19.69 L 83.59,20.02 L 84.39,21.21 L 84.82,21.90 L 85.89,23.84 L 86.46,24.91 L 87.83,27.65 L 88.56,29.12 L 90.25,32.70 L 93.19,39.05 L 94.42,41.72 L 96.96,47.25 L 98.22,49.99 L 100.64,55.19 L 101.22,56.45 L 102.31,58.79 L 102.84,59.93 L 103.81,61.98 L 104.27,62.96 L 104.78,64.04 L 104.54,63.55 L 103.58,61.52 L 101.60,57.31 L 100.55,55.05 L 97.57,48.64 L 95.79,44.85 L 95.06,43.32 L 94.36,41.86 L 94.06,41.24 L 93.50,40.09 L 93.28,39.65 L 92.88,38.85 L 92.75,38.60 L 92.54,38.20 L 92.51,38.17 L 91.78,38.18 L 91.06,38.54 L 90.68,38.85 L 89.54,39.47 L 88.87,39.54 L 88.71,39.37 L 88.42,39.35 L 88.20,39.54 L 88.08,39.73 L 87.61,40.70 L 87.43,41.44 L 87.10,43.96 L 87.10,45.92 L 87.20,47.01 L 87.45,49.24 L 87.67,50.42 L 88.15,52.81 L 88.47,54.02 L 89.94,58.89 L 90.90,61.12 L 91.89,63.30 L 92.43,64.28 L 93.53,66.16 L 94.12,66.94 L 95.84,68.75 L 97.34,69.89 L 98.25,70.43 L 100.18,71.48 L 101.31,71.97 L 103.67,72.92 L 105.00,73.35 L 106.00,73.62 L 106.61,73.72 L 107.86,73.90 L 108.37,73.92 L 109.20,73.89 L 109.48,73.81 L 110.01,74.90 L 100.38,94.78 L 99.06,97.52 L 96.55,102.50 L 95.95,103.69 L 94.81,105.88 L 94.25,106.94 L 93.23,108.83 L 92.74,109.73 L 91.88,111.26 L 91.47,111.98 L 90.78,113.10 L 90.47,113.60 L 90.00,114.26 L 89.56,114.67 L 89.48,114.67 L 89.07,114.13 L 88.83,113.78 L 88.14,112.59 L 87.77,111.92 L 86.83,110.16 L 86.33,109.21 L 85.17,106.94 L 84.57,105.75 L 83.24,103.04 L 82.56,101.64 L 81.08,98.57 L 80.33,97.00 L 78.76,93.64 L 77.96,91.94 L 76.31,88.36 L 64.26,62.05 L 73.10,42.78 L 74.32,40.13 L 76.54,35.11 L 77.07,33.90 L 78.05,31.62 L 78.52,30.51 L 79.36,28.48 L 79.76,27.50 L 80.45,25.77 L 80.77,24.95 L 81.27,23.59 L 81.50,22.96 L 81.79,22.03 L 81.98,21.17 L 81.98,20.54 L 82.12,19.73 L 82.21,19.41 L 82.55,19.22 L 82.74,19.21 Z" fill="rgba(103,189,221,1)"/>
<path d="M 92.54,38.20 L 92.75,38.60 L 92.88,38.85 L 93.28,39.65 L 93.50,40.09 L 94.06,41.24 L 94.36,41.86 L 95.06,43.32 L 95.79,44.85 L 97.57,48.64 L 100.55,55.05 L 101.60,57.31 L 103.58,61.52 L 104.54,63.55 L 106.22,67.01 L 106.61,67.82 L 107.31,69.21 L 107.63,69.87 L 108.19,70.94 L 108.44,71.44 L 108.83,72.14 L 109.19,72.73 L 109.39,72.97 L 109.59,73.33 L 109.66,73.49 L 109.60,73.70 L 109.54,73.80 L 109.20,73.89 L 108.37,73.92 L 107.86,73.90 L 106.61,73.72 L 106.00,73.62 L 105.00,73.35 L 103.67,72.92 L 101.31,71.97 L 100.18,71.48 L 98.25,70.43 L 97.34,69.89 L 95.84,68.75 L 94.12,66.94 L 93.53,66.16 L 92.43,64.28 L 91.89,63.30 L 90.90,61.12 L 89.94,58.89 L 88.47,54.02 L 88.15,52.81 L 87.67,50.42 L 87.45,49.24 L 87.20,47.01 L 87.10,45.92 L 87.10,43.96 L 87.43,41.44 L 87.61,40.70 L 88.08,39.73 L 88.20,39.54 L 88.42,39.35 L 88.71,39.37 L 88.87,39.54 L 89.54,39.47 L 90.68,38.85 L 91.06,38.54 L 91.78,38.18 L 92.51,38.17 Z" fill="rgba(136,202,221,1)"/>
<path d="M 195.58,134.51 L 194.50,134.13 L 191.99,132.70 L 191.38,132.32 L 190.26,131.51 L 188.88,130.31 L 188.66,130.10 L 188.01,129.12 L 187.64,128.54 L 186.69,126.88 L 186.18,125.96 L 184.96,123.65 L 184.32,122.43 L 182.85,119.53 L 182.09,118.01 L 180.41,114.58 L 179.55,112.80 L 177.67,108.87 L 176.71,106.85 L 174.67,102.49 L 171.44,95.50 L 170.44,93.30 L 168.49,89.06 L 167.52,86.97 L 165.70,83.01 L 164.80,81.08 L 163.14,77.50 L 162.33,75.77 L 160.87,72.66 L 160.17,71.17 L 158.96,68.62 L 158.40,67.42 L 157.48,65.52 L 157.06,64.66 L 156.48,63.49 L 156.02,62.68 L 155.97,62.62 L 156.05,62.12 L 156.12,61.81 L 156.42,60.84 L 156.60,60.31 L 157.11,58.93 L 157.39,58.20 L 158.08,56.46 L 158.45,55.56 L 159.30,53.52 L 159.74,52.47 L 160.73,50.19 L 164.11,42.68 L 165.02,40.72 L 166.57,37.31 L 167.31,35.68 L 168.55,32.87 L 169.14,31.53 L 170.10,29.22 L 170.55,28.13 L 171.27,26.25 L 171.60,25.35 L 172.10,23.82 L 172.33,23.08 L 172.65,21.80 L 173.06,18.50 L 173.14,13.50 L 174.95,17.50 L 175.20,18.05 L 175.97,19.72 L 176.39,20.63 L 177.40,22.82 L 180.73,30.00 L 182.73,34.27 L 186.42,42.19 L 188.22,46.05 L 191.55,53.20 L 193.17,56.68 L 196.14,63.09 L 197.58,66.21 L 200.22,71.93 L 201.50,74.71 L 203.82,79.78 L 204.94,82.23 L 206.96,86.69 L 207.94,88.85 L 209.68,92.73 L 210.52,94.61 L 211.99,97.97 L 212.70,99.58 L 213.93,102.45 L 214.52,103.83 L 215.53,106.25 L 216.00,107.41 L 216.80,109.42 L 217.17,110.39 L 217.78,112.04 L 218.06,112.82 L 218.49,114.14 L 218.69,114.77 L 218.96,115.81 L 219.30,118.07 L 219.28,119.06 L 219.02,120.99 L 218.85,121.94 L 218.29,123.76 L 217.98,124.65 L 217.14,126.34 L 216.70,127.16 L 215.61,128.69 L 215.03,129.43 L 213.72,130.77 L 213.03,131.41 L 211.50,132.53 L 210.71,133.06 L 208.99,133.94 L 206.22,134.96 L 205.04,135.28 L 203.24,135.68 L 202.39,135.83 L 200.92,135.87 L 200.19,135.84 L 198.60,135.49 L 197.74,135.26 Z" fill="rgba(173,225,139,1)"/>
</g>
</svg>