<svg width="72" height="64" viewBox="0 0 18 16" fill="none" xmlns="http://www.w3.org/2000/svg">
<path d="M10.827 1.95849L15.3114 5.94462C16.5421 7.03855 16.5421 8.96145 15.3114 10.0554L10.827 14.0415C9.78506 14.9677 8.21494 14.9677 7.173 14.0415L2.6886 10.0554C1.45793 8.96145 1.45793 7.03855 2.6886 5.94462L7.173 1.95849C8.21494 1.03232 9.78506 1.03232 10.827 1.95849Z" stroke="url(#paint0_linear_371_136)" stroke-width="0.5"/>
<path d="M7.203 5.671C7.70274 5.24007 8.34012 5.00207 9 5C10.345 5 11.4615 6 11.583 7.2895C12.379 7.402 13 8.0685 13 8.8865C13 9.7845 12.251 10.5 11.3435 10.5H6.8905C5.854 10.5 5 9.683 5 8.659C5 7.7775 5.633 7.0475 6.471 6.8625C6.5425 6.431 6.82 6.001 7.203 5.671ZM7.5295 6.0495C7.151 6.376 6.953 6.7695 6.953 7.0775V7.3015L6.7305 7.326C6.032 7.4025 5.5 7.976 5.5 8.659C5.5 9.3925 6.115 10 6.8905 10H11.3435C11.99 10 12.5 9.494 12.5 8.8865C12.5 8.2785 11.99 7.7725 11.3435 7.7725H11.0935V7.5225C11.094 6.4125 10.164 5.5 9 5.5C8.45994 5.50216 7.93842 5.69672 7.5295 6.0495Z" fill="url(#paint1_linear_371_136)"/>
<defs>
<linearGradient id="paint0_linear_371_136" x1="9" y1="0" x2="9" y2="16" gradientUnits="userSpaceOnUse">
<stop stop-color="white"/>
<stop offset="1" stop-color="#999999"/>
</linearGradient>
<linearGradient id="paint1_linear_371_136" x1="9" y1="5" x2="9" y2="10.5" gradientUnits="userSpaceOnUse">
<stop stop-color="white"/>
<stop offset="1" stop-color="#999999" stop-opacity="0.6"/>
</linearGradient>
</defs>
</svg>
