<svg width="72" height="64" viewBox="0 0 18 16" fill="none" xmlns="http://www.w3.org/2000/svg">
<path d="M10.827 1.95849L15.3114 5.94462C16.5421 7.03855 16.5421 8.96145 15.3114 10.0554L10.827 14.0415C9.78506 14.9677 8.21494 14.9677 7.173 14.0415L2.6886 10.0554C1.45793 8.96145 1.45793 7.03855 2.6886 5.94462L7.173 1.95849C8.21494 1.03232 9.78506 1.03232 10.827 1.95849Z" stroke="url(#paint0_linear_371_145)" stroke-width="0.5"/>
<g clip-path="url(#clip0_371_145)">
<path d="M7.61925 6.00763C7.96275 5.85163 8.451 5.75 9 5.75C9.549 5.75 10.0373 5.85125 10.3808 6.00763C10.7415 6.17188 10.875 6.36013 10.875 6.5C10.875 6.64025 10.7415 6.82813 10.3808 6.99238C10.0373 7.14838 9.549 7.25 9 7.25C8.451 7.25 7.96275 7.14875 7.61925 6.99238C7.2585 6.82813 7.125 6.63987 7.125 6.5C7.125 6.35975 7.2585 6.17188 7.61925 6.00763ZM10.875 7.13675V7.625C10.875 7.76525 10.7415 7.95312 10.3808 8.11737C10.0373 8.27337 9.549 8.375 9 8.375C8.451 8.375 7.96275 8.27375 7.61925 8.11737C7.2585 7.95312 7.125 7.76487 7.125 7.625V7.13675C7.22662 7.2125 7.3425 7.2785 7.464 7.33363C7.86675 7.51663 8.41013 7.625 9 7.625C9.58987 7.625 10.1332 7.51663 10.536 7.33363C10.6556 7.28003 10.7692 7.21404 10.875 7.13675ZM11.25 6.5C11.25 6.12238 10.9219 5.84187 10.536 5.66637C10.1332 5.48337 9.58987 5.375 9 5.375C8.41013 5.375 7.86675 5.48337 7.464 5.66637C7.07812 5.84187 6.75 6.12238 6.75 6.5V9.875C6.75 10.2526 7.07812 10.5331 7.464 10.7086C7.86675 10.8912 8.41013 11 9 11C9.58987 11 10.1332 10.8916 10.536 10.7086C10.9219 10.5331 11.25 10.2526 11.25 9.875V6.5ZM10.875 8.26175V8.75C10.875 8.89025 10.7415 9.07812 10.3808 9.24237C10.0373 9.39837 9.549 9.5 9 9.5C8.451 9.5 7.96275 9.39875 7.61925 9.24237C7.2585 9.07812 7.125 8.88987 7.125 8.75V8.26175C7.22662 8.3375 7.3425 8.4035 7.464 8.45862C7.86675 8.64125 8.41013 8.75 9 8.75C9.58987 8.75 10.1332 8.64162 10.536 8.45862C10.6556 8.40503 10.7692 8.33904 10.875 8.26175ZM10.875 9.38675V9.875C10.875 10.0153 10.7415 10.2031 10.3808 10.3674C10.0373 10.5234 9.549 10.625 9 10.625C8.451 10.625 7.96275 10.5237 7.61925 10.3674C7.2585 10.2031 7.125 10.0149 7.125 9.875V9.38675C7.22662 9.4625 7.3425 9.5285 7.464 9.58362C7.86675 9.76625 8.41013 9.875 9 9.875C9.58987 9.875 10.1332 9.76662 10.536 9.58362C10.6575 9.5285 10.7734 9.4625 10.875 9.38675Z" fill="url(#paint1_linear_371_145)"/>
</g>
<defs>
<linearGradient id="paint0_linear_371_145" x1="9" y1="0" x2="9" y2="16" gradientUnits="userSpaceOnUse">
<stop stop-color="white"/>
<stop offset="1" stop-color="#999999"/>
</linearGradient>
<linearGradient id="paint1_linear_371_145" x1="9" y1="5.375" x2="9" y2="11" gradientUnits="userSpaceOnUse">
<stop stop-color="white"/>
<stop offset="1" stop-color="#999999"/>
</linearGradient>
<clipPath id="clip0_371_145">
<rect width="6" height="6" fill="white" transform="translate(6 5)"/>
</clipPath>
</defs>
</svg>
