<svg width="18" height="16" viewBox="0 0 18 16" fill="none" xmlns="http://www.w3.org/2000/svg">
<path d="M10.827 1.95849L15.3114 5.94462C16.5421 7.03855 16.5421 8.96145 15.3114 10.0554L10.827 14.0415C9.78506 14.9677 8.21494 14.9677 7.173 14.0415L2.6886 10.0554C1.45793 8.96145 1.45793 7.03855 2.6886 5.94462L7.173 1.95849C8.21494 1.03232 9.78506 1.03232 10.827 1.95849Z" stroke="url(#paint0_linear_371_122)" stroke-width="0.5"/>
<path d="M10.8175 6.28951C10.8606 6.28951 10.9021 6.31031 10.9326 6.34732C10.9631 6.38433 10.9803 6.43454 10.9803 6.48688V9.44741H7.0724V6.48688C7.0724 6.43454 7.08955 6.38433 7.12009 6.34732C7.15063 6.31031 7.19204 6.28951 7.23523 6.28951H10.8175ZM7.23523 5.89478C7.10567 5.89478 6.98142 5.95716 6.88981 6.0682C6.7982 6.17924 6.74674 6.32984 6.74674 6.48688V9.84214H11.306V6.48688C11.306 6.32984 11.2545 6.17924 11.1629 6.0682C11.0713 5.95716 10.947 5.89478 10.8175 5.89478H7.23523ZM6.42108 10.0395H11.6316C11.6316 10.1965 11.5801 10.3472 11.4885 10.4582C11.3969 10.5692 11.2727 10.6316 11.1431 10.6316H6.90957C6.78001 10.6316 6.65577 10.5692 6.56416 10.4582C6.47255 10.3472 6.42108 10.1965 6.42108 10.0395Z" fill="url(#paint1_linear_371_122)"/>
<defs>
<linearGradient id="paint0_linear_371_122" x1="9" y1="0" x2="9" y2="16" gradientUnits="userSpaceOnUse">
<stop stop-color="white"/>
<stop offset="1" stop-color="#999999"/>
</linearGradient>
<linearGradient id="paint1_linear_371_122" x1="9.02634" y1="5.89478" x2="9.02634" y2="10.6316" gradientUnits="userSpaceOnUse">
<stop stop-color="white"/>
<stop offset="1" stop-color="#999999"/>
</linearGradient>
</defs>
</svg>
